<svg width="24" height="24" viewBox="0 0 24 24" fill="none" xmlns="http://www.w3.org/2000/svg">
<path d="M12 0C5.4 0 0 5.4 0 12C0 18.6 5.4 24 12 24C18.6 24 24 18.6 24 12C24 5.4 18.6 0 12 0Z" fill="black"/>
<path d="M6.5 10C5.05263 10 4 11.1842 4 12.5C4 13.9474 5.18421 15 6.5 15C7.94737 15 9 13.8158 9 12.5C9 11.0526 7.94737 10 6.5 10Z" fill="#F0F0F0"/>
<path d="M12.5 10C11.0526 10 10 11.1842 10 12.5C10 13.9474 11.1842 15 12.5 15C13.9474 15 15 13.8158 15 12.5C15 11.0526 13.9474 10 12.5 10Z" fill="#F0F0F0"/>
<path d="M18.5 10C17.0526 10 16 11.1842 16 12.5C16 13.9474 17.1842 15 18.5 15C19.9474 15 21 13.8158 21 12.5C21 11.0526 19.8158 10 18.5 10Z" fill="#F0F0F0"/>
</svg>
