<svg width="24" height="24" viewBox="0 0 24 24" fill="none" xmlns="http://www.w3.org/2000/svg">
<path d="M12.3027 9.32205C13.7762 9.32223 14.9707 10.5175 14.9707 11.991C14.9706 13.117 14.2717 14.0769 13.2852 14.4685V24.0008H11.2852V14.4568C10.3165 14.0568 9.63392 13.1041 9.63379 11.991C9.63379 10.5174 10.8291 9.32205 12.3027 9.32205ZM12.2383 0.0163898C12.2801 -0.00539927 12.3175 -0.00552716 12.3594 0.0163898C13.1603 0.436133 21.5976 5.03879 21.5977 12.6697C21.5975 16.4829 18.9612 19.7188 15.2979 20.8836V16.406C16.6935 15.4436 17.6103 13.8295 17.6104 11.9998C17.6102 9.05042 15.2311 6.6592 12.2969 6.65897C9.36243 6.65897 6.98358 9.05028 6.9834 11.9998C6.98347 13.831 7.90035 15.4468 9.29785 16.409V20.8836C5.63542 19.7183 3.00019 16.4824 3 12.6697C3.00006 5.03879 11.4373 0.436131 12.2383 0.0163898Z" fill="black"/>
</svg>
