<svg width="24" height="25" viewBox="0 0 24 25" fill="none" xmlns="http://www.w3.org/2000/svg">
<path fill-rule="evenodd" clip-rule="evenodd" d="M20.4248 8.71289C20.4248 3.90119 16.5246 0.00017884 11.7129 0C6.90108 0 3 3.90108 3 8.71289C3.00011 11.6617 4.46513 14.2683 6.70702 15.8447L6.70704 15.8447C6.9845 16.0398 7.12324 16.1373 7.21048 16.2445C7.29772 16.3516 7.35041 16.4733 7.45581 16.7166C7.61988 17.0954 7.76949 17.4798 7.90437 17.869C10.3851 18.6241 13.039 18.6242 15.5197 17.8692C15.6545 17.48 15.804 17.0956 15.968 16.7168L15.968 16.7167C16.0734 16.4734 16.1261 16.3517 16.2133 16.2445C16.3006 16.1373 16.4394 16.0398 16.717 15.8447C18.9593 14.2684 20.4247 11.662 20.4248 8.71289ZM14.9214 20.0905C12.8077 20.5508 10.6174 20.5508 8.50368 20.0906C8.62686 20.7198 8.71323 21.3568 8.76186 21.9985C8.8102 22.6364 8.83438 22.9554 8.98142 23.1744C9.12847 23.3933 9.39359 23.5259 9.92383 23.791C11.0498 24.354 12.3749 24.3539 13.501 23.791L13.501 23.791C14.0318 23.5258 14.2972 23.3933 14.4443 23.1742C14.5915 22.9551 14.6156 22.6361 14.6638 21.998C14.7123 21.3565 14.7985 20.7196 14.9214 20.0905Z" fill="black"/>
</svg>
