<svg width="24" height="24" viewBox="0 0 24 24" fill="none" xmlns="http://www.w3.org/2000/svg">
<path d="M11.9988 3C12.6249 3.00004 13.229 3.10327 13.7937 3.29492C13.291 4.07481 12.9988 5.0031 12.9988 6C12.9988 8.73641 15.1967 10.957 17.9236 10.9971C18.1033 11.8682 18.4251 12.7055 18.8816 13.4727C18.889 13.485 18.8969 13.4975 18.9119 13.5225L19.49 14.4854C20.0146 15.3596 20.2771 15.7974 20.2205 16.1562C20.1828 16.3949 20.0591 16.6115 19.8738 16.7666C19.5952 16.9997 19.0856 17 18.0662 17H5.93045C4.91108 17 4.40138 16.9998 4.12283 16.7666C3.93763 16.6115 3.81487 16.3948 3.77713 16.1562C3.72051 15.7974 3.98207 15.3596 4.50662 14.4854L5.08474 13.5225C5.09967 13.4976 5.10768 13.485 5.11502 13.4727C5.69345 12.5007 6.05931 11.4167 6.18826 10.293C6.18989 10.2788 6.19093 10.264 6.19412 10.2354L6.44607 7.96973C6.76042 5.14063 9.1523 3 11.9988 3ZM16.2732 4.99121C16.9586 5.80518 17.4169 6.82049 17.5467 7.94629C16.66 7.74127 15.9988 6.94899 15.9988 6C15.9988 5.63171 16.0996 5.28756 16.2732 4.99121Z" fill="black"/>
<path d="M9 17C9 17.394 9.0776 17.7841 9.22836 18.1481C9.37913 18.512 9.6001 18.8427 9.87868 19.1213C10.1573 19.3999 10.488 19.6209 10.8519 19.7716C11.2159 19.9224 11.606 20 12 20C12.394 20 12.7841 19.9224 13.1481 19.7716C13.512 19.6209 13.8427 19.3999 14.1213 19.1213C14.3999 18.8427 14.6209 18.512 14.7716 18.1481C14.9224 17.7841 15 17.394 15 17L12 17H9Z" fill="black"/>
<circle cx="18" cy="6" r="2.5" fill="black" stroke="black"/>
</svg>
