<svg width="24" height="24" viewBox="0 0 24 24" fill="none" xmlns="http://www.w3.org/2000/svg">
<path d="M11.9365 3.03208C11.9783 3.01014 12.0217 3.01014 12.0635 3.03208C12.7636 3.4 18.9998 6.83583 19 12.4989C18.9999 15.0915 17.3646 17.3287 15 18.3719V14.6424C15.6217 13.9375 16 13.0127 16 11.9989C16 9.78974 14.2091 7.99888 12 7.99888C9.79086 7.99888 8 9.78974 8 11.9989C8 13.0127 8.37831 13.9375 9 14.6424V18.3719C6.6354 17.3287 5.00012 15.0915 5 12.4989C5.00016 6.83583 11.2364 3.4 11.9365 3.03208Z" fill="black"/>
<path d="M12 21V12" stroke="black" stroke-width="2"/>
<circle cx="12" cy="12" r="2" fill="black"/>
</svg>
