<svg width="19" height="19" viewBox="0 0 19 19" fill="none" xmlns="http://www.w3.org/2000/svg">
<path d="M18.6412 5.58219L14.0909 0.366999C13.8043 0.0380367 13.3416 -0.083352 12.9118 0.0584146C12.4829 0.200195 12.2053 0.566222 12.2053 0.989718V3.552H2.38813C1.07166 3.552 0 4.55001 0 5.776C0 7.00199 1.07166 8 2.38813 8H17.4054C18.0253 8 18.5766 7.67659 18.8433 7.15488C19.1099 6.63317 19.0323 6.03069 18.6412 5.58219Z" fill="black"/>
<path d="M16.611 11.0001H1.59451C0.974623 11.0001 0.423383 11.3236 0.156742 11.8453C-0.1099 12.367 -0.0323094 12.9693 0.358727 13.4178L4.9088 18.633C5.11675 18.8712 5.41526 19 5.72668 19C5.84707 19 5.96846 18.9805 6.08787 18.9416C6.51672 18.7998 6.79431 18.4338 6.79431 18.0103V15.448H16.612C17.9284 15.448 19 14.45 19 13.224C19 11.998 17.9284 11 16.612 11L16.611 11.0001Z" fill="black"/>
</svg>
