<svg width="22" height="22" viewBox="0 0 22 22" fill="none" xmlns="http://www.w3.org/2000/svg">
<path d="M10.3529 3.88235V17.7941H1.94118V3.88235H10.3529ZM4.85294 9.05882H7.44118C7.79854 9.05882 8.08824 8.76913 8.08824 8.41177C8.08824 8.0544 7.79854 7.76471 7.44118 7.76471H4.85294C4.49558 7.76471 4.20588 8.0544 4.20588 8.41177C4.20588 8.76913 4.49558 9.05882 4.85294 9.05882ZM4.85294 11.3235H7.44118C7.79854 11.3235 8.08824 11.0338 8.08824 10.6765C8.08824 10.3191 7.79854 10.0294 7.44118 10.0294H4.85294C4.49558 10.0294 4.20588 10.3191 4.20588 10.6765C4.20588 11.0338 4.49558 11.3235 4.85294 11.3235ZM4.85294 13.5882H7.44118C7.79854 13.5882 8.08824 13.2985 8.08824 12.9412C8.08824 12.5838 7.79854 12.2941 7.44118 12.2941H4.85294C4.49558 12.2941 4.20588 12.5838 4.20588 12.9412C4.20588 13.2985 4.49558 13.5882 4.85294 13.5882ZM20.0588 3.88235V17.7941H11.6471V3.88235H20.0588ZM16.8235 10.0294H15.9293L16.4317 9.02467C16.5915 8.70503 16.4619 8.31637 16.1423 8.15655C15.8227 7.99673 15.434 8.12629 15.2742 8.44592L14.3036 10.3871C14.0885 10.8173 14.4013 11.3235 14.8824 11.3235H15.7766L15.2742 12.3283C15.1144 12.6479 15.2439 13.0366 15.5636 13.1964C15.8832 13.3562 16.2719 13.2267 16.4317 12.907L17.4023 10.9658C17.6174 10.5356 17.3045 10.0294 16.8235 10.0294ZM0 21.3529V20.7059C0 19.6338 0.869094 18.7647 1.94118 18.7647H20.0588C21.1309 18.7647 22 19.6338 22 20.7059V21.3529C22 21.7103 21.7103 22 21.3529 22H0.647059C0.289698 22 0 21.7103 0 21.3529ZM8.73529 1.61765H13.2647V0.647059C13.2647 0.289698 13.5544 0 13.9118 0C14.2691 0 14.5588 0.289698 14.5588 0.647059V1.61765H15.8529V0.647059C15.8529 0.289698 16.1426 0 16.5 0C16.8574 0 17.1471 0.289698 17.1471 0.647059V1.61765H20.3824C20.7397 1.61765 21.0294 1.90735 21.0294 2.26471C21.0294 2.62207 20.7397 2.91176 20.3824 2.91176H1.61765C1.26029 2.91176 0.970588 2.62207 0.970588 2.26471C0.970588 1.90735 1.26029 1.61765 1.61765 1.61765H4.85294V0.647059C4.85294 0.289698 5.14264 0 5.5 0C5.85736 0 6.14706 0.289698 6.14706 0.647059V1.61765H7.44118V0.647059C7.44118 0.289698 7.73088 0 8.08824 0C8.4456 0 8.73529 0.289698 8.73529 0.647059V1.61765Z" fill="black"/>
</svg>
