<svg width="24" height="24" viewBox="0 0 24 24" fill="none" xmlns="http://www.w3.org/2000/svg">
<path d="M13.5 16.002V21.002H10.5V16.002H13.5ZM12 4.95312C13.1097 4.95312 14.0412 5.7517 15.9043 7.34863L16.9043 8.20605C17.9351 9.0896 18.4511 9.53126 18.7256 10.1279C19 10.7247 19 11.404 19 12.7617V17.002C19 18.8875 18.9998 19.8302 18.4141 20.416C17.8825 20.9475 17.0571 20.9935 15.5 20.998V16.002C15.5 14.8974 14.6046 14.002 13.5 14.002H10.5C9.39543 14.002 8.5 14.8974 8.5 16.002V20.998C6.94288 20.9935 6.11748 20.9475 5.58594 20.416C5.00016 19.8302 5 18.8875 5 17.002V12.7617C5 11.404 4.99995 10.7247 5.27441 10.1279C5.54889 9.53126 6.0649 9.0896 7.0957 8.20605L8.0957 7.34863C9.95879 5.7517 10.8903 4.95313 12 4.95312Z" fill="black"/>
</svg>
