<svg width="24" height="24" viewBox="0 0 24 24" fill="none" xmlns="http://www.w3.org/2000/svg">
<path d="M11.3662 3.58008C11.7247 3.23938 12.2753 3.23938 12.6338 3.58008C14.3569 5.21788 19 10.0508 19 14.5713C19 18.1217 15.866 21 12 21C8.13401 21 5.00001 18.1217 5 14.5713C5 10.0508 9.64307 5.21788 11.3662 3.58008ZM8.46484 14.0283C8.19181 14.0696 8.00367 14.3246 8.04492 14.5977C8.17326 15.4467 8.57153 16.2326 9.18066 16.8379C9.7898 17.443 10.578 17.8361 11.4277 17.959C11.7009 17.9984 11.9546 17.8083 11.9941 17.5352C12.0334 17.262 11.8435 17.0083 11.5703 16.9688C10.9331 16.8765 10.3425 16.5817 9.88574 16.1279C9.42889 15.674 9.12946 15.085 9.0332 14.4482C8.99194 14.1753 8.73776 13.9872 8.46484 14.0283Z" fill="black"/>
</svg>
