<svg width="24" height="24" viewBox="0 0 24 24" fill="none" xmlns="http://www.w3.org/2000/svg">
<path fill-rule="evenodd" clip-rule="evenodd" d="M18 10C18 6.68629 15.3137 4 12 4C8.68629 4 6 6.68629 6 10C6 11.9638 6.94344 13.7074 8.40185 14.8019C8.68932 15.0177 8.83306 15.1256 8.91546 15.2318C8.99785 15.338 9.04548 15.4531 9.14073 15.6833C9.17535 15.7669 9.20895 15.8509 9.24153 15.9353C11.0303 16.5339 12.9688 16.5339 14.7576 15.9354C14.7901 15.8511 14.8237 15.7671 14.8583 15.6835C14.9535 15.4533 15.0011 15.3381 15.0836 15.2318C15.166 15.1255 15.3098 15.0177 15.5974 14.8019C17.0561 13.7074 18 11.9641 18 10ZM14.1501 18.1665C12.7318 18.4574 11.2679 18.4574 9.84963 18.1663C9.93658 18.6932 9.98627 19.2271 9.99753 19.7642C10.0006 19.9087 10.0817 20.0408 10.2109 20.1055C11.337 20.6685 12.663 20.6685 13.7891 20.1055C13.9183 20.0408 13.9994 19.9087 14.0025 19.7642C14.0137 19.2272 14.0633 18.6933 14.1501 18.1665Z" fill="black"/>
</svg>
