<svg width="25" height="25" viewBox="0 0 25 25" fill="none" xmlns="http://www.w3.org/2000/svg">
<path d="M12.1062 2.21608C12.2665 2.08808 12.5388 1.94921 12.8819 2.01844C13.2254 2.08787 13.4101 2.31902 13.4968 2.49704C13.5768 2.66131 13.6094 2.84539 13.6279 3.00183C13.6652 3.32068 13.6642 3.76943 13.6642 4.29596V9.69626H15.4841C16.3972 9.69626 17.1578 9.69399 17.7349 9.77245C18.3231 9.85252 18.8921 10.0377 19.2421 10.5404C19.5918 11.0428 19.5358 11.5933 19.3679 12.1166C19.2032 12.6302 18.8812 13.2633 18.4976 14.0239L14.8692 21.2171C14.6284 21.6947 14.4239 22.1018 14.244 22.3768C14.1558 22.5116 14.0414 22.6657 13.8938 22.7838C13.7335 22.9118 13.4612 23.0508 13.1181 22.9816C12.7746 22.9121 12.5899 22.6809 12.5032 22.5029C12.4232 22.3386 12.3906 22.1545 12.3721 21.9981C12.3348 21.6793 12.3358 21.2305 12.3358 20.704V15.3037H10.5159C9.60281 15.3037 8.84213 15.306 8.2652 15.2275C7.67696 15.1474 7.10785 14.9623 6.75784 14.4596C6.40821 13.9572 6.46423 13.4066 6.63201 12.8834C6.79675 12.3698 7.11878 11.7367 7.50244 10.9761L11.1308 3.78283C11.3716 3.30524 11.5762 2.89808 11.756 2.62325C11.8442 2.48841 11.9586 2.33422 12.1062 2.21608Z" fill="black" stroke="black"/>
</svg>
