<svg preserveAspectRatio="none" width="100%" height="100%" overflow="visible" style="display: block;" viewBox="0 0 272.865 389.268" fill="none" xmlns="http://www.w3.org/2000/svg">
<path id="Vector 628" d="M3.36308 316.706L0.97193 315.976L3.36308 316.706ZM211.863 197.206L209.427 196.644L211.863 197.206ZM199.863 96.2059L202.233 95.4097L202.2 95.3122L202.159 95.2177L199.863 96.2059ZM190.863 48.2059L188.408 47.7347L190.863 48.2059ZM221.863 3.70586L220.996 1.36114L221.863 3.70586ZM269.155 17.894C270.363 18.5622 271.884 18.1244 272.552 16.9161C273.221 15.7079 272.783 14.1867 271.575 13.5185L270.365 15.7063L269.155 17.894ZM22.3629 388.207C24.6259 387.145 24.6259 387.145 24.6259 387.145C24.6257 387.144 24.6256 387.144 24.6253 387.143C24.6247 387.142 24.6237 387.14 24.6224 387.137C24.6197 387.131 24.6155 387.123 24.6099 387.111C24.5987 387.086 24.5816 387.05 24.559 387.001C24.5137 386.904 24.4459 386.758 24.3574 386.565C24.1804 386.181 23.9203 385.612 23.5908 384.88C22.9316 383.415 21.9945 381.299 20.8873 378.7C18.6714 373.498 15.7799 366.375 13.0693 358.678C10.3547 350.97 7.84251 342.744 6.36279 335.322C4.86102 327.79 4.51357 321.501 5.75424 317.436L3.36308 316.706L0.97193 315.976C-0.65644 321.313 -0.0634296 328.663 1.45931 336.3C3.00411 344.048 5.60045 352.522 8.35315 360.339C11.1097 368.166 14.044 375.393 16.2872 380.659C17.4094 383.294 18.3602 385.441 19.0315 386.932C19.3671 387.678 19.633 388.26 19.8155 388.656C19.9068 388.854 19.9772 389.006 20.0252 389.109C20.0491 389.161 20.0675 389.2 20.08 389.227C20.0863 389.24 20.0911 389.251 20.0944 389.258C20.096 389.261 20.0973 389.264 20.0982 389.266C20.0987 389.267 20.0991 389.268 20.0993 389.268C20.0996 389.269 20.0998 389.269 22.3629 388.207ZM3.36308 316.706L5.75424 317.436C7.90603 310.384 10.4072 304.975 14.0539 300.631C17.6798 296.313 22.5776 292.883 29.7834 290.03L28.8631 287.706L27.9428 285.381C20.1502 288.467 14.4987 292.325 10.2246 297.416C5.97126 302.482 3.22158 308.604 0.97193 315.976L3.36308 316.706ZM28.8631 287.706L29.7834 290.03C33.3373 288.623 41.6104 286.423 52.7402 283.691C63.7945 280.977 77.4242 277.794 91.5705 274.41C119.746 267.671 150.084 260.111 165.293 254.027L164.365 251.706L163.436 249.385C148.647 255.301 118.733 262.772 90.4073 269.548C76.3027 272.921 62.6191 276.117 51.5481 278.835C40.5525 281.535 31.8881 283.819 27.9428 285.381L28.8631 287.706ZM164.365 251.706L165.293 254.027C196.193 241.666 209.473 218.691 214.299 197.768L211.863 197.206L209.427 196.644C204.895 216.293 192.533 237.745 163.436 249.385L164.365 251.706ZM211.863 197.206L214.299 197.768C218.891 177.86 215.788 152.158 211.662 131.698C209.588 121.414 207.234 112.354 205.399 105.864C204.481 102.618 203.692 100.012 203.131 98.2139C202.851 97.3149 202.628 96.6177 202.474 96.1434C202.397 95.9062 202.337 95.7248 202.297 95.6016C202.276 95.5401 202.261 95.4931 202.25 95.461C202.245 95.4449 202.241 95.4326 202.238 95.424C202.236 95.4198 202.235 95.4164 202.234 95.4141C202.234 95.4129 202.234 95.4118 202.233 95.4112C202.233 95.4103 202.233 95.4097 199.863 96.2059C197.493 97.002 197.493 97.0019 197.493 97.002C197.493 97.0023 197.493 97.0027 197.494 97.0034C197.494 97.0048 197.495 97.0071 197.496 97.0104C197.498 97.017 197.502 97.0273 197.506 97.0414C197.516 97.0695 197.53 97.1124 197.549 97.1699C197.587 97.2848 197.644 97.4579 197.718 97.6865C197.866 98.1436 198.084 98.8226 198.358 99.7026C198.907 101.463 199.683 104.026 200.588 107.225C202.398 113.625 204.718 122.557 206.76 132.686C210.866 153.049 213.763 177.848 209.427 196.644L211.863 197.206ZM199.863 96.2059C202.159 95.2177 202.16 95.218 202.16 95.2182C202.16 95.2181 202.16 95.2181 202.16 95.2179C202.159 95.2175 202.159 95.2167 202.158 95.2154C202.157 95.2129 202.156 95.2086 202.153 95.2026C202.148 95.1905 202.14 95.1714 202.129 95.1456C202.107 95.0938 202.073 95.0148 202.03 94.9098C201.942 94.6997 201.812 94.3855 201.648 93.9769C201.318 93.1596 200.849 91.9653 200.296 90.4716C199.188 87.4817 197.75 83.3044 196.423 78.5567C193.737 68.9468 191.638 57.4316 193.318 48.6771L190.863 48.2059L188.408 47.7347C186.493 57.7101 188.894 70.1949 191.607 79.9025C192.98 84.8136 194.465 89.1244 195.607 92.208C196.178 93.751 196.665 94.9897 197.01 95.8463C197.183 96.2746 197.32 96.6075 197.415 96.8354C197.463 96.9493 197.5 97.0369 197.525 97.0971C197.538 97.1272 197.548 97.1504 197.555 97.1666C197.558 97.1747 197.561 97.1811 197.563 97.1856C197.564 97.1879 197.565 97.1898 197.565 97.1912C197.566 97.1919 197.566 97.1926 197.566 97.1929C197.566 97.1935 197.567 97.194 199.863 96.2059ZM190.863 48.2059L193.318 48.6771C197.261 28.1323 204.134 12.9296 222.73 6.05058L221.863 3.70586L220.996 1.36114C199.864 9.17798 192.449 26.6797 188.408 47.7347L190.863 48.2059ZM221.863 3.70586L222.73 6.05058C226.157 4.78321 230.695 4.72439 235.822 5.54342C240.902 6.35478 246.294 7.98295 251.269 9.82306C256.232 11.6591 260.714 13.6814 263.958 15.2473C265.578 16.0292 266.885 16.6951 267.783 17.1637C268.233 17.3979 268.579 17.5827 268.812 17.7078C268.928 17.7704 269.016 17.818 269.074 17.8495C269.102 17.8652 269.124 17.8769 269.137 17.8844C269.144 17.8881 269.149 17.8908 269.152 17.8924C269.153 17.8932 269.154 17.8938 269.155 17.894C269.155 17.8942 269.155 17.8942 269.155 17.8942C269.155 17.8942 269.155 17.894 270.365 15.7063C271.575 13.5185 271.574 13.5183 271.573 13.5179C271.573 13.5177 271.572 13.5173 271.572 13.5169C271.57 13.5161 271.568 13.515 271.566 13.5136C271.561 13.5109 271.554 13.5071 271.545 13.5022C271.527 13.4925 271.502 13.4785 271.469 13.4605C271.403 13.4244 271.306 13.3721 271.181 13.3047C270.931 13.1699 270.565 12.975 270.095 12.7303C269.157 12.2409 267.804 11.5515 266.131 10.7444C262.791 9.13188 258.158 7.04024 253.004 5.1336C247.86 3.23103 242.131 1.4878 236.611 0.606017C231.139 -0.26809 225.599 -0.341805 220.996 1.36114L221.863 3.70586Z" fill="var(--stroke-0, white)"/>
</svg>
